<?xml version="1.0" encoding="UTF-8"?>
<!DOCTYPE svg PUBLIC "-//W3C//DTD SVG 1.1//EN" "http://www.w3.org/Graphics/SVG/1.1/DTD/svg11.dtd">
<!-- Creator: CorelDRAW -->
<svg xmlns="http://www.w3.org/2000/svg" xml:space="preserve" width="200px" height="60px" version="1.1" style="shape-rendering:geometricPrecision; text-rendering:geometricPrecision; image-rendering:optimizeQuality; fill-rule:evenodd; clip-rule:evenodd"
viewBox="0 0 105.02 31.42"
 xmlns:xlink="http://www.w3.org/1999/xlink"
 xmlns:xodm="http://www.corel.com/coreldraw/odm/2003">
 <defs>
  <style type="text/css">
   <![CDATA[
    .fil0 {fill:#FEFEFE}
    .fil1 {fill:#FEFEFE;fill-rule:nonzero}
   ]]>
  </style>
 </defs>
 <g id="Camada_x0020_1">
  <metadata id="CorelCorpID_0Corel-Layer"/>
  <path class="fil0" d="M89.98 31.35l1.5 0c1.41,0 2.41,-0.88 2.41,-2.1 0,-1.23 -1,-2.1 -2.41,-2.1l-1.5 0 0 4.2zm-76.15 -24.69c0.14,-0.42 0.53,-0.75 0.97,-0.75 1.13,-0.01 2.26,-0.02 3.38,-0.01 0.53,0 1,0.47 1.02,1 0,0.47 0,0.95 0.01,1.42 0,0.25 0,0.5 0,0.74 0,0.26 0,0.52 0,0.78 0,0.27 0.03,0.55 -0.07,0.81 -0.1,0.23 -0.28,0.42 -0.5,0.54 -0.16,0.08 -0.33,0.12 -0.5,0.11 -1.1,0.01 -2.2,0.02 -3.29,0.02 -0.53,0 -1.01,-0.44 -1.04,-0.97 -0.01,-0.35 -0.01,-0.71 -0.01,-1.06 0,-0.47 -0.01,-0.93 -0.01,-1.39 0,-0.34 -0.01,-0.69 0.01,-1.03 0,-0.07 0.01,-0.14 0.03,-0.21zm-1.44 9.66c0,0.22 0.01,0.45 -0.03,0.68 -0.13,0.42 -0.53,0.77 -0.98,0.77 -1.07,0.02 -2.13,0.02 -3.2,0.02 -0.21,0 -0.42,-0.02 -0.61,-0.11 -0.34,-0.17 -0.58,-0.54 -0.58,-0.92 -0.02,-0.44 -0.01,-0.89 -0.01,-1.33 -0.01,-0.59 -0.01,-1.19 -0.01,-1.78 0,-0.19 -0.01,-0.39 0.06,-0.57 0.06,-0.18 0.18,-0.33 0.32,-0.46 0.17,-0.13 0.38,-0.23 0.61,-0.23 1.13,-0.02 2.25,-0.02 3.38,-0.02 0.4,-0.01 0.79,0.26 0.95,0.63 0.11,0.23 0.08,0.5 0.09,0.75 0,0.22 0,0.44 0,0.65 0.01,0.22 0.01,0.43 0.01,0.64 0,0.21 0,0.42 0,0.63 0,0.21 0,0.43 0,0.65zm-0.88 0.44c0,-0.24 0,-0.47 0,-0.71 0,-0.21 0,-0.42 0,-0.62 -0.01,-0.21 -0.01,-0.42 -0.01,-0.63 0,-0.22 0,-0.44 0,-0.66 0,-0.21 0,-0.42 0,-0.63 0,-0.11 -0.03,-0.25 -0.16,-0.26 -0.65,-0.01 -1.29,0.01 -1.94,0 -0.45,0.01 -0.9,0.01 -1.35,0.02 -0.09,-0.01 -0.18,0.04 -0.19,0.13 -0.02,0.17 -0.01,0.35 -0.01,0.52 0,0.58 0.01,1.16 0.01,1.74 0.01,0.36 0,0.71 0.01,1.06 -0.01,0.12 0.11,0.21 0.22,0.19 1.07,0 2.14,-0.01 3.21,-0.02 0.09,0.01 0.17,-0.05 0.21,-0.13zm5.76 -1.32l0.01 0c0.21,-0.22 0.44,-0.44 0.66,-0.65 0.11,-0.12 0.29,-0.16 0.44,-0.1 0.24,0.07 0.37,0.38 0.25,0.6 -0.1,0.17 -0.26,0.29 -0.4,0.43 -0.18,0.18 -0.35,0.35 -0.53,0.53 -0.41,0.4 -0.82,0.8 -1.23,1.2 -0.12,0.12 -0.29,0.21 -0.46,0.18 -0.17,-0.01 -0.29,-0.14 -0.4,-0.25 -0.38,-0.41 -0.76,-0.81 -1.14,-1.22 -0.11,-0.12 -0.19,-0.3 -0.14,-0.46 0.07,-0.3 0.5,-0.43 0.71,-0.2 0.35,0.36 0.7,0.73 1.04,1.1 0.22,-0.2 0.43,-0.42 0.65,-0.63 0.18,-0.18 0.36,-0.35 0.54,-0.53zm-1.07 -1.05c0.18,-0.19 0.37,-0.37 0.56,-0.55 0.18,-0.18 0.36,-0.36 0.54,-0.53 0.23,-0.22 0.45,-0.45 0.69,-0.65 0.24,-0.21 0.65,-0.03 0.68,0.28 0.05,0.31 -0.25,0.48 -0.44,0.68 -0.18,0.18 -0.37,0.36 -0.55,0.55 -0.18,0.17 -0.37,0.35 -0.55,0.53 -0.2,0.2 -0.41,0.4 -0.62,0.61 -0.11,0.1 -0.22,0.21 -0.37,0.22 -0.18,0.03 -0.34,-0.06 -0.46,-0.18 -0.39,-0.42 -0.79,-0.84 -1.18,-1.26 -0.1,-0.11 -0.19,-0.24 -0.18,-0.4 0,-0.24 0.24,-0.44 0.48,-0.4 0.15,0.01 0.27,0.12 0.36,0.23 0.3,0.33 0.62,0.65 0.91,0.98 0.05,-0.04 0.09,-0.07 0.13,-0.11zm-6.75 -3.96c0.58,0 1.17,0 1.75,-0.01 0.09,0 0.17,-0.01 0.25,-0.03 0.04,-0.06 0.06,-0.13 0.06,-0.21 0,-0.34 0,-0.68 0,-1.02 0,-0.23 -0.01,-0.45 -0.01,-0.68 0,-0.23 0,-0.47 0,-0.71 -0.02,-0.31 0.03,-0.64 -0.04,-0.95 -0.17,-0.06 -0.35,-0.04 -0.53,-0.04 -0.96,0 -1.92,0 -2.89,0.02 -0.08,-0.02 -0.13,0.04 -0.18,0.09 -0.02,0.44 -0.01,0.88 -0.01,1.32 0.01,0.67 0.01,1.35 0.01,2.03 0.01,0.1 0.08,0.2 0.19,0.2 0.46,0 0.93,-0.01 1.4,-0.01zm2.87 0.21c-0.1,0.23 -0.27,0.42 -0.48,0.54 -0.16,0.08 -0.33,0.12 -0.51,0.12 -1.09,0.01 -2.19,0.02 -3.29,0.02 -0.43,0.01 -0.84,-0.29 -0.99,-0.69 -0.11,-0.3 -0.05,-0.63 -0.07,-0.94 0,-0.58 -0.01,-1.15 -0.01,-1.73 0.01,-0.42 -0.03,-0.84 0.02,-1.25 0.12,-0.43 0.51,-0.78 0.97,-0.79 0.36,-0.01 0.72,-0.03 1.08,-0.01 0.77,-0.02 1.53,-0.01 2.3,-0.02 0.54,0 1.02,0.48 1.04,1.02 0,0.36 0,0.73 0,1.1 0.01,0.24 0.01,0.47 0.01,0.71 0,0.17 0.01,0.35 0,0.52 0.01,0.31 0,0.63 0,0.94 0.01,0.16 -0.02,0.31 -0.07,0.46zm3.84 -0.21c0.54,0 1.08,0 1.62,-0.01 0.17,0 0.35,0.02 0.52,-0.04 0.08,-0.38 0.01,-0.77 0.03,-1.15 -0.01,-0.22 0,-0.44 0,-0.66 -0.01,-0.21 -0.01,-0.41 -0.01,-0.61 0,-0.33 0,-0.66 -0.01,-0.98 0.01,-0.11 -0.07,-0.21 -0.18,-0.2 -1.08,0 -2.16,0 -3.24,0.01 -0.08,-0.01 -0.15,0.04 -0.22,0.1 0,0.22 0,0.45 0,0.68 0,0.27 0,0.53 0.01,0.79 0,0.39 0,0.78 0,1.17 0.01,0.26 -0.01,0.51 0.02,0.77 0,0.09 0.11,0.14 0.19,0.14 0.42,0 0.85,-0.01 1.27,-0.01zm19.24 14.21l10.02 0c1.02,0 1.6,-0.58 1.6,-1.6l0 -0.97c0,-1.03 -0.58,-1.6 -1.6,-1.6l-8.82 0c-1.44,0 -1.68,-0.55 -1.68,-1.44l0 -3.73 8.19 0c1.03,0 1.6,-0.58 1.6,-1.59l0 -0.88c0,-1.02 -0.57,-1.6 -1.6,-1.6l-8.19 0 0 -3.55c0,-0.89 0.24,-1.44 1.68,-1.44l8.2 0c1.02,0 1.59,-0.58 1.59,-1.6l0 -0.97c0,-1.03 -0.57,-1.6 -1.59,-1.6l-9.4 0c-3.73,0 -5.38,1.37 -5.38,4.98l0 12.6c0,3.62 1.65,4.99 5.38,4.99zm60.32 -17.4c-5.4,0 -8.54,1.81 -8.54,8.05l-0.03 2.69c-0.04,3.15 -4.59,3.09 -8.78,3.09 -2.31,0 -3.88,-0.7 -4.51,-2.64l7.32 -0.77c3.14,-0.33 4.16,-1.36 4.16,-3.79 0,-4.34 -2.91,-6.63 -7.79,-6.63 -5.82,0 -8.8,3.21 -8.8,8.86 0,5.97 3.52,8.84 8.77,8.84 6.59,0.39 14.59,-0.7 14.52,-6.81l-0.03 -2.92c0.05,-2.86 0.98,-3.96 3.71,-3.91 2.61,0 3.72,0.86 3.72,3.91l0 7.82c0,1.03 0.57,1.61 1.59,1.61l1.64 0c1.02,0 1.59,-0.58 1.59,-1.61l0 -7.74c0,-6.24 -3.14,-8.05 -8.54,-8.05zm-16.14 7.07l-5.97 0.61c0.25,-2.94 1.54,-4.03 3.94,-4.03 2.22,0 3.22,0.88 3.22,2.53 0,0.59 -0.19,0.78 -1.19,0.89zm-22.16 -7.06c-0.77,0 -1.58,0.03 -2.42,0.1l0 -5.43c0,-1.03 -0.57,-1.6 -1.59,-1.6l-1.64 0c-1.02,0 -1.59,0.57 -1.59,1.6l0 17.58c0,3.89 2.17,5.45 7.24,5.45 6.09,0 9.7,-2.26 9.7,-8.85 0,-6.62 -3.61,-8.85 -9.7,-8.85zm0.33 13.64c-2.47,0 -2.75,-0.71 -2.75,-2.12l0 -7.26c1.03,-0.14 1.93,-0.21 2.71,-0.21 3.23,0 4.59,1.14 4.59,4.8 0,3.59 -1.36,4.79 -4.55,4.79zm-37.06 -20.69l-14.21 0c-1.12,0 -2.16,0.44 -2.93,1.16l0 0 -2.12 1.94 0 0c-0.88,0.79 -1.43,1.94 -1.43,3.21l0 9.88c0.07,2.18 -0.05,1.68 1.48,3.26l3.59 3.65c1.57,1.58 1.13,1.72 3.3,1.71l10.16 -0.07c1.05,0 2.46,-0.77 3.26,-1.5l1.44 -1.29c1.14,-1.02 1.79,-1.73 1.79,-3.35l0 -14.27c0,-2.38 -1.95,-4.33 -4.33,-4.33zm-3.01 3.35l-11.83 0 0 -0.01 -1.34 0c-0.54,0 -0.98,0.45 -0.98,0.99l0 0.98 0 0 0 8.57c0.06,1.92 -0.04,1.48 1.3,2.87l3.16 3.21c1.38,1.39 0.99,1.51 2.91,1.5l8.32 -0.05 1.28 0c0.54,0 0.99,-0.44 0.99,-0.98l0 -0.86 0 -0.13 0 -12.28c0,-2.1 -1.72,-3.81 -3.81,-3.81zm85.31 24.57c-0.4,0 -0.75,0.18 -0.94,0.45l0 -1.49 -0.89 0 0 4.27 0.89 0 0 -1.87c0,-0.34 0.29,-0.61 0.66,-0.61 0.35,0 0.6,0.27 0.6,0.66l0 1.82 0.86 0 0 -2.01c0,-0.72 -0.49,-1.22 -1.18,-1.22zm-3.7 3.3c0.78,0 1.28,-0.4 1.28,-1.02 0,-0.69 -0.6,-0.87 -1.15,-1.01 -0.42,-0.12 -0.55,-0.17 -0.55,-0.34 0,-0.11 0.15,-0.19 0.37,-0.19 0.27,0 0.6,0.11 0.89,0.28l0.36 -0.63c-0.35,-0.23 -0.8,-0.39 -1.25,-0.39 -0.74,0 -1.24,0.42 -1.23,1.02 0.01,0.62 0.51,0.8 1.15,0.96 0.33,0.09 0.56,0.15 0.56,0.34 0,0.14 -0.17,0.24 -0.41,0.24 -0.42,0 -0.78,-0.15 -1.06,-0.35l-0.38 0.61c0.38,0.31 0.91,0.48 1.42,0.48zm-3.32 -3.3c-0.44,0 -0.87,0.12 -1.32,0.34l0.3 0.6c0.25,-0.13 0.53,-0.23 0.82,-0.23 0.52,0 0.73,0.29 0.73,0.63l0 0.06c-0.27,-0.1 -0.55,-0.16 -0.81,-0.16 -0.73,0 -1.31,0.43 -1.31,1.05 0,0.61 0.52,1.01 1.19,1.01 0.34,0 0.7,-0.14 0.93,-0.39l0 0.32 0.86 0 0 -1.89c0,-0.82 -0.57,-1.34 -1.39,-1.34zm-0.2 2.68c-0.31,0 -0.53,-0.16 -0.53,-0.41 0,-0.26 0.25,-0.45 0.58,-0.45 0.24,0 0.47,0.04 0.68,0.12l0 0.29c-0.07,0.29 -0.39,0.45 -0.73,0.45zm-4.9 -0.27l0 -2.56 0.73 0c0.79,0 1.36,0.53 1.36,1.28 0,0.75 -0.57,1.28 -1.36,1.28l-0.73 0z"/>
  <path class="fil0" d="M20.69 0l-14.21 0c-1.12,0 -2.16,0.44 -2.93,1.15l0 0 -2.12 1.94 0 0c-0.88,0.8 -1.43,1.94 -1.43,3.21l0 9.88c0.07,2.19 -0.05,1.68 1.48,3.27l3.59 3.64c1.57,1.59 1.13,1.72 3.3,1.71l10.16 -0.06c1.05,-0.01 2.46,-0.78 3.26,-1.5l1.44 -1.29c1.14,-1.02 1.79,-1.74 1.79,-3.35l0 -14.27c0,-2.38 -1.95,-4.33 -4.33,-4.33zm-3.01 3.35l-11.83 0 0 -0.01 -1.34 0c-0.54,0 -0.98,0.44 -0.98,0.99l0 0.98 0 0 0 8.56c0.06,1.92 -0.04,1.48 1.3,2.88l3.16 3.2c1.38,1.4 0.99,1.52 2.91,1.51l8.32 -0.05 1.28 0c0.54,0 0.99,-0.45 0.99,-0.99l0 -0.85 0 -0.13 0 -12.29c0,-2.09 -1.72,-3.8 -3.81,-3.8z"/>
  <path class="fil0" d="M35.39 24.36l10.02 0c1.02,0 1.6,-0.57 1.6,-1.6l0 -0.97c0,-1.02 -0.58,-1.6 -1.6,-1.6l-8.82 0c-1.44,0 -1.68,-0.55 -1.68,-1.44l0 -3.73 8.19 0c1.03,0 1.6,-0.57 1.6,-1.59l0 -0.88c0,-1.02 -0.57,-1.59 -1.6,-1.59l-8.19 0 0 -3.55c0,-0.9 0.24,-1.45 1.68,-1.45l8.2 0c1.02,0 1.59,-0.57 1.59,-1.6l0 -0.97c0,-1.03 -0.57,-1.6 -1.59,-1.6l-9.4 0c-3.73,0 -5.38,1.37 -5.38,4.98l0 12.61c0,3.61 1.65,4.98 5.38,4.98zm66.16 6.71l0.9 0 0 -1.36 0.99 0c0.91,0 1.58,-0.59 1.58,-1.42 0,-0.83 -0.67,-1.41 -1.58,-1.41l-1.89 0 0 4.19zm0.9 -2.19l0 -1.18 0.89 0c0.45,0 0.75,0.23 0.75,0.59 0,0.36 -0.3,0.59 -0.75,0.59l-0.89 0zm-1.58 -1.19l0 -0.81 -3.23 0 0 4.19 3.23 0 0 -0.81 -2.33 0 0 -0.92 2.11 0 0 -0.82 -2.11 0 0 -0.83 2.33 0zm-6.04 3.38l0.9 0 0 -3.38 1.31 0 0 -0.81 -3.52 0 0 0.81 1.31 0 0 3.38zm-3.37 0.07c1.03,0 1.63,-0.53 1.63,-1.33 0,-0.77 -0.59,-1.04 -1.5,-1.24 -0.64,-0.15 -0.89,-0.25 -0.89,-0.55 0,-0.25 0.23,-0.45 0.61,-0.45 0.41,0 0.83,0.16 1.2,0.46l0.47 -0.65c-0.43,-0.36 -0.96,-0.58 -1.64,-0.58 -0.92,0 -1.55,0.53 -1.55,1.31 0,0.81 0.63,1.06 1.51,1.26 0.64,0.15 0.88,0.24 0.88,0.54 0,0.26 -0.23,0.47 -0.68,0.47 -0.53,0 -0.98,-0.21 -1.38,-0.55l-0.52 0.62c0.49,0.45 1.14,0.69 1.86,0.69zm4.25 -24.17c-5.4,0 -8.54,1.8 -8.54,8.04l-0.03 2.7c-0.04,3.15 -4.59,3.08 -8.78,3.08 -2.31,0 -3.88,-0.69 -4.51,-2.64l7.32 -0.77c3.14,-0.33 4.16,-1.35 4.16,-3.78 0,-4.34 -2.91,-6.63 -7.79,-6.63 -5.82,0 -8.8,3.21 -8.8,8.85 0,5.98 3.52,8.85 8.77,8.85 6.59,0.38 14.59,-0.71 14.52,-6.82l-0.03 -2.92c0.05,-2.86 0.98,-3.96 3.71,-3.9 2.61,0 3.72,0.85 3.72,3.9l0 7.83c0,1.02 0.57,1.6 1.59,1.6l1.64 0c1.02,0 1.59,-0.58 1.59,-1.6l0 -7.75c0,-6.24 -3.14,-8.04 -8.54,-8.04zm-16.14 7.06l-5.97 0.61c0.25,-2.94 1.54,-4.03 3.94,-4.03 2.22,0 3.22,0.89 3.22,2.54 0,0.59 -0.19,0.78 -1.19,0.88zm-22.16 -7.06c-0.77,0 -1.58,0.04 -2.42,0.11l0 -5.44c0,-1.02 -0.57,-1.6 -1.59,-1.6l-1.64 0c-1.02,0 -1.59,0.58 -1.59,1.6l0 17.58c0,3.89 2.17,5.45 7.24,5.45 6.09,0 9.7,-2.25 9.7,-8.85 0,-6.62 -3.61,-8.85 -9.7,-8.85zm0.33 13.64c-2.47,0 -2.75,-0.71 -2.75,-2.12l0 -7.26c1.03,-0.14 1.93,-0.21 2.71,-0.21 3.23,0 4.59,1.15 4.59,4.8 0,3.59 -1.36,4.79 -4.55,4.79z"/>
  <g id="_2543013969856">
   <g id="__x0023_000000ff">
    <g>
     <path class="fil1" d="M8.25 5.41c0.56,-0.17 1.17,-0.14 1.71,0.09 0.38,0.17 0.71,0.45 0.94,0.8 0.26,0.38 0.38,0.84 0.39,1.29 0.01,0.54 -0.2,1.08 -0.55,1.5 -0.35,0.41 -0.85,0.69 -1.39,0.78 0,1.58 0,3.16 0,4.74 1.05,0 2.11,0 3.16,0 0,-0.29 0,-0.57 0,-0.86 -0.68,-0.1 -1.29,-0.53 -1.63,-1.12 -0.25,-0.42 -0.36,-0.93 -0.29,-1.41 0.05,-0.43 0.2,-0.85 0.47,-1.18 0.3,-0.38 0.73,-0.65 1.19,-0.77 0.55,-0.15 1.16,-0.1 1.67,0.15 0.37,0.18 0.69,0.46 0.9,0.82 0.23,0.36 0.34,0.79 0.36,1.22 0,0.53 -0.18,1.05 -0.51,1.46 -0.36,0.44 -0.88,0.75 -1.43,0.83 0,0.29 0,0.57 0,0.86 1.05,0 2.1,0 3.15,0 0.01,-1.58 0,-3.16 0.01,-4.74 -0.55,-0.09 -1.05,-0.37 -1.41,-0.8 -0.34,-0.41 -0.54,-0.94 -0.54,-1.48 0.02,-0.46 0.14,-0.92 0.4,-1.31 0.23,-0.34 0.55,-0.6 0.92,-0.77 0.56,-0.25 1.2,-0.27 1.78,-0.08 0.46,0.16 0.87,0.47 1.13,0.88 0.24,0.37 0.36,0.81 0.38,1.26l0 0.11c-0.02,0.48 -0.18,0.94 -0.48,1.32 -0.35,0.46 -0.88,0.78 -1.46,0.87 0,1.58 0,3.16 0,4.74 0.15,0 0.3,-0.01 0.44,0 0.1,0.01 0.19,0.06 0.25,0.13 0.35,0.35 0.7,0.69 1.04,1.04 0.1,0.09 0.21,0.19 0.21,0.34l0 0.03c0,0.1 -0.05,0.2 -0.12,0.26 -0.38,0.38 -0.76,0.76 -1.14,1.14 -0.08,0.09 -0.21,0.12 -0.33,0.12l-10.32 0c-0.11,0 -0.22,0 -0.3,-0.06 -0.09,-0.06 -0.15,-0.16 -0.17,-0.27l0 -2.4c0.02,-0.12 0.09,-0.23 0.2,-0.29 0.09,-0.05 0.21,-0.04 0.31,-0.04 0.48,0 0.96,0 1.44,0 0,-1.58 0,-3.16 0,-4.74 -0.56,-0.09 -1.08,-0.39 -1.43,-0.83 -0.32,-0.38 -0.49,-0.86 -0.52,-1.35l0 -0.12c0.03,-0.46 0.15,-0.93 0.41,-1.31 0.28,-0.4 0.7,-0.7 1.16,-0.85l0 0zm0.45 0.63c-0.39,0.07 -0.75,0.3 -0.99,0.62 -0.21,0.29 -0.32,0.65 -0.3,1.01 0.02,0.37 0.17,0.73 0.42,1 0.3,0.32 0.73,0.51 1.17,0.5 0.32,-0.01 0.64,-0.1 0.91,-0.29 0.27,-0.18 0.47,-0.47 0.57,-0.78 0.13,-0.41 0.1,-0.87 -0.1,-1.26 -0.17,-0.33 -0.46,-0.59 -0.81,-0.72 -0.28,-0.1 -0.58,-0.14 -0.87,-0.08l0 0zm7.88 -0.02c-0.27,0.03 -0.53,0.13 -0.75,0.3 -0.34,0.24 -0.57,0.62 -0.63,1.03 -0.05,0.32 0,0.67 0.15,0.96 0.22,0.43 0.65,0.75 1.13,0.84 0.27,0.05 0.55,0.01 0.81,-0.07 0.34,-0.12 0.65,-0.36 0.82,-0.67 0.24,-0.42 0.28,-0.95 0.11,-1.4 -0.13,-0.35 -0.39,-0.66 -0.73,-0.82 -0.28,-0.14 -0.6,-0.2 -0.91,-0.17l0 0zm-4.01 3.91c-0.39,0.07 -0.75,0.31 -0.99,0.63 -0.2,0.29 -0.3,0.65 -0.28,1 0.01,0.32 0.13,0.64 0.33,0.89 0.28,0.36 0.72,0.59 1.17,0.6 0.3,0.01 0.6,-0.06 0.86,-0.2 0.29,-0.16 0.51,-0.41 0.64,-0.71 0.2,-0.44 0.19,-0.97 -0.03,-1.4 -0.16,-0.32 -0.43,-0.58 -0.76,-0.71 -0.3,-0.12 -0.63,-0.17 -0.94,-0.1l0 0zm-5.16 5.41c0,0.53 0,1.07 0,1.6 0.73,0 1.47,0 2.21,0 0.26,-0.27 0.53,-0.53 0.8,-0.8 -0.27,-0.27 -0.54,-0.54 -0.81,-0.8 -0.73,0 -1.47,0 -2.2,0l0 0zm3.23 0c0.19,0.18 0.37,0.37 0.56,0.55 0.12,0.14 0.12,0.36 0,0.49 -0.19,0.19 -0.37,0.37 -0.56,0.56 0.95,0 1.91,0 2.86,0 0.27,-0.26 0.53,-0.53 0.8,-0.8 -0.27,-0.27 -0.53,-0.54 -0.8,-0.8 -0.95,0 -1.91,0 -2.86,0l0 0zm3.89 0c0.18,0.18 0.37,0.37 0.55,0.56 0.13,0.13 0.12,0.36 -0.01,0.49 -0.18,0.19 -0.36,0.37 -0.54,0.55 0.95,0 1.9,0 2.86,0 0.26,-0.27 0.53,-0.53 0.8,-0.8 -0.27,-0.27 -0.54,-0.54 -0.81,-0.8 -0.95,0 -1.9,0 -2.85,0z"/>
    </g>
    <path class="fil1" d="M9.31 6.95c0.07,-0.07 0.17,-0.12 0.28,-0.11 0.17,0.01 0.32,0.15 0.34,0.32 0.02,0.11 -0.03,0.23 -0.11,0.31 -0.24,0.23 -0.47,0.47 -0.71,0.71 -0.06,0.06 -0.12,0.12 -0.19,0.14 -0.14,0.05 -0.29,0.01 -0.39,-0.09 -0.12,-0.12 -0.25,-0.25 -0.37,-0.37 -0.08,-0.08 -0.13,-0.19 -0.12,-0.29 0.02,-0.21 0.23,-0.38 0.43,-0.34 0.14,0.03 0.23,0.15 0.32,0.24 0.18,-0.17 0.35,-0.34 0.52,-0.52z"/>
    <path class="fil1" d="M17.07 6.96c0.08,-0.08 0.18,-0.13 0.28,-0.12 0.18,0 0.34,0.16 0.35,0.34 0.01,0.11 -0.04,0.22 -0.12,0.3 -0.25,0.25 -0.5,0.5 -0.75,0.75 -0.12,0.12 -0.31,0.15 -0.45,0.06 -0.11,-0.07 -0.19,-0.18 -0.29,-0.27 -0.1,-0.11 -0.26,-0.21 -0.28,-0.38 -0.03,-0.22 0.18,-0.44 0.4,-0.41 0.15,0.01 0.25,0.14 0.35,0.24 0.17,-0.17 0.34,-0.34 0.51,-0.51z"/>
    <path class="fil1" d="M13.18 10.85c0.07,-0.07 0.17,-0.13 0.27,-0.13 0.18,0 0.35,0.15 0.37,0.33 0.01,0.12 -0.04,0.23 -0.13,0.31 -0.23,0.24 -0.47,0.48 -0.71,0.72 -0.13,0.17 -0.4,0.2 -0.55,0.04 -0.13,-0.12 -0.25,-0.25 -0.38,-0.37 -0.08,-0.08 -0.13,-0.18 -0.12,-0.29 0.01,-0.2 0.21,-0.38 0.41,-0.34 0.15,0.02 0.24,0.14 0.34,0.23 0.17,-0.17 0.33,-0.33 0.5,-0.5z"/>
   </g>
  </g>
 </g>
</svg>
